<?xml version="1.0" encoding="UTF-8"?>
<svg version="1.1" xmlns="http://www.w3.org/2000/svg" width="80" height="62">
<path d="M0 0 C3.879107 1.76794025 6.99338691 3.99338691 10 7 C10.7425 6.21625 11.485 5.4325 12.25 4.625 C17.22578215 -0.12461024 21.18608416 -0.56953982 27.953125 -0.4375 C33.64678499 0.38005118 36.9931392 3.33178735 40.375 7.828125 C42.61693615 11.65809925 43.18130159 14.84426954 43.09375 19.265625 C43.07344727 20.60028809 43.07344727 20.60028809 43.05273438 21.96191406 C43.03533203 22.63448242 43.01792969 23.30705078 43 24 C42.41508789 24.01458252 41.83017578 24.02916504 41.22753906 24.04418945 C38.56770603 24.1188357 35.90910552 24.21543899 33.25 24.3125 C31.86941406 24.34633789 31.86941406 24.34633789 30.4609375 24.38085938 C29.57148437 24.41630859 28.68203125 24.45175781 27.765625 24.48828125 C26.94868164 24.51446533 26.13173828 24.54064941 25.29003906 24.56762695 C22.49186739 24.92155686 22.49186739 24.92155686 19 28 C18.01 24.7 17.02 21.4 16 18 C12.75608861 18.69139735 12.75608861 18.69139735 11.61328125 21.72265625 C11.18402344 22.82480469 10.75476562 23.92695313 10.3125 25.0625 C9.87550781 26.16722656 9.43851563 27.27195312 8.98828125 28.41015625 C8.66214844 29.26480469 8.33601563 30.11945312 8 31 C7.34 31 6.68 31 6 31 C5.32694982 29.39850114 4.66177773 27.79368971 4 26.1875 C3.62875 25.29417969 3.2575 24.40085937 2.875 23.48046875 C2 21 2 21 2 18 C-1.15921012 19.30554434 -1.15921012 19.30554434 -3.06640625 22.05859375 C-5.37155981 24.37306106 -6.03046516 24.3087776 -9.1953125 24.42578125 C-10.83888485 24.40852241 -12.48234241 24.36998024 -14.125 24.3125 C-14.96160156 24.30283203 -15.79820313 24.29316406 -16.66015625 24.28320312 C-22.83182803 24.16817197 -22.83182803 24.16817197 -24 23 C-24.06048634 16.6852263 -23.26349401 10.8405968 -19 6 C-13.31887171 0.77104314 -7.7138053 -1.69629426 0 0 Z " fill="#91080A" transform="translate(28,3)"/>
<path d="M0 0 C3.1398451 1.56992255 3.42143346 4.22447002 4.625 7.4375 C5.07101563 8.61183594 5.51703125 9.78617188 5.9765625 10.99609375 C7 14 7 14 7 16 C10.56007358 13.62661762 10.85110773 12.33809432 12.1875 8.375 C12.53167969 7.37210938 12.87585937 6.36921875 13.23046875 5.3359375 C13.61138672 4.17964844 13.61138672 4.17964844 14 3 C14.99 3 15.98 3 17 3 C17.66 5.31 18.32 7.62 19 10 C19.66 10 20.32 10 21 10 C21.52078125 9.18144531 22.0415625 8.36289062 22.578125 7.51953125 C25.22500658 4.76592057 25.53672599 4.63499582 29.109375 4.51171875 C30.65700607 4.54478779 32.20425916 4.60418893 33.75 4.6875 C34.93916016 4.72133789 34.93916016 4.72133789 36.15234375 4.75585938 C38.1023762 4.81459529 40.05143312 4.90427346 42 5 C38.91629968 13.8773191 31.09844568 20.18247685 24 26 C22.84757812 26.96679688 22.84757812 26.96679688 21.671875 27.953125 C20.50398438 28.90445313 20.50398438 28.90445313 19.3125 29.875 C18.60738281 30.44992188 17.90226562 31.02484375 17.17578125 31.6171875 C14.71596074 33.18052047 12.88940017 33.70269838 10 34 C3.85664185 32.31358796 0.03389641 28.59699908 -4.5546875 24.2890625 C-6.6879549 22.29210611 -8.86868065 20.41688392 -11.125 18.5625 C-12.07375 17.716875 -13.0225 16.87125 -14 16 C-14 15.34 -14 14.68 -14 14 C-14.66 14 -15.32 14 -16 14 C-17.2890625 12.5390625 -17.2890625 12.5390625 -18.625 10.625 C-19.29402344 9.68527344 -19.29402344 9.68527344 -19.9765625 8.7265625 C-21 7 -21 7 -21 5 C-19.73542969 4.97421875 -18.47085937 4.9484375 -17.16796875 4.921875 C-15.50777782 4.86559734 -13.8476229 4.80824993 -12.1875 4.75 C-10.93743164 4.72873047 -10.93743164 4.72873047 -9.66210938 4.70703125 C-4.77923838 4.64313081 -4.77923838 4.64313081 -0.92578125 1.953125 C-0.46751953 0.98632812 -0.46751953 0.98632812 0 0 Z " fill="#900709" transform="translate(27,26)"/>
<path d="M0 0 C1.54763107 0.03306904 3.09488416 0.09247018 4.640625 0.17578125 C5.82978516 0.20961914 5.82978516 0.20961914 7.04296875 0.24414062 C8.9930012 0.30287654 10.94205812 0.39255471 12.890625 0.48828125 C9.96906797 8.89882421 2.15847062 16.47652961 -5.109375 21.48828125 C-6.099375 21.48828125 -7.089375 21.48828125 -8.109375 21.48828125 C-7.779375 20.82828125 -7.449375 20.16828125 -7.109375 19.48828125 C-7.769375 19.48828125 -8.429375 19.48828125 -9.109375 19.48828125 C-9.109375 18.82828125 -9.109375 18.16828125 -9.109375 17.48828125 C-7.459375 17.48828125 -5.809375 17.48828125 -4.109375 17.48828125 C-4.439375 16.16828125 -4.769375 14.84828125 -5.109375 13.48828125 C-4.47128906 13.318125 -3.83320312 13.14796875 -3.17578125 12.97265625 C-2.34949219 12.7303125 -1.52320313 12.48796875 -0.671875 12.23828125 C0.15183594 12.00625 0.97554687 11.77421875 1.82421875 11.53515625 C4.09057968 10.68057446 4.09057968 10.68057446 4.67578125 8.37890625 C4.74667969 7.755 4.81757812 7.13109375 4.890625 6.48828125 C5.880625 6.48828125 6.870625 6.48828125 7.890625 6.48828125 C7.890625 5.49828125 7.890625 4.50828125 7.890625 3.48828125 C4.260625 3.48828125 0.630625 3.48828125 -3.109375 3.48828125 C-3.439375 5.13828125 -3.769375 6.78828125 -4.109375 8.48828125 C-5.429375 8.81828125 -6.749375 9.14828125 -8.109375 9.48828125 C-8.109375 8.82828125 -8.109375 8.16828125 -8.109375 7.48828125 C-9.099375 7.48828125 -10.089375 7.48828125 -11.109375 7.48828125 C-10.779375 6.82828125 -10.449375 6.16828125 -10.109375 5.48828125 C-9.449375 5.48828125 -8.789375 5.48828125 -8.109375 5.48828125 C-7.58859375 4.66972656 -7.0678125 3.85117187 -6.53125 3.0078125 C-3.88436842 0.25420182 -3.57264901 0.12327707 0 0 Z " fill="#A23D3C" transform="translate(56.109375,30.51171875)"/>
<path d="M0 0 C5.45356968 0.10462484 8.67572018 1.03897549 12.75 4.671875 C16.92920548 9.37348117 18.59389769 13.44566664 18.46875 19.765625 C18.44844727 21.10028809 18.44844727 21.10028809 18.42773438 22.46191406 C18.41033203 23.13448242 18.39292969 23.80705078 18.375 24.5 C17.79008789 24.51458252 17.20517578 24.52916504 16.60253906 24.54418945 C13.94270603 24.6188357 11.28410552 24.71543899 8.625 24.8125 C7.24441406 24.84633789 7.24441406 24.84633789 5.8359375 24.88085938 C4.94648437 24.91630859 4.05703125 24.95175781 3.140625 24.98828125 C1.91520996 25.02755737 1.91520996 25.02755737 0.66503906 25.06762695 C-2.08494617 25.58684058 -3.52729473 26.69083451 -5.625 28.5 C-5.955 26.85 -6.285 25.2 -6.625 23.5 C1.295 23.5 9.215 23.5 17.375 23.5 C16.88 18.55 16.88 18.55 16.375 13.5 C15.715 13.5 15.055 13.5 14.375 13.5 C14.375 12.84 14.375 12.18 14.375 11.5 C13.715 11.5 13.055 11.5 12.375 11.5 C12.148125 10.88125 11.92125 10.2625 11.6875 9.625 C9.99570165 6.88589791 8.38255839 6.44975528 5.375 5.5 C5.375 4.84 5.375 4.18 5.375 3.5 C4.385 3.83 3.395 4.16 2.375 4.5 C2.375 3.84 2.375 3.18 2.375 2.5 C-0.925 2.5 -4.225 2.5 -7.625 2.5 C-5.00363832 -0.12136168 -3.65763804 0.11111812 0 0 Z " fill="#A85153" transform="translate(52.625,2.5)"/>
<path d="M0 0 C3.1398451 1.56992255 3.42143346 4.22447002 4.625 7.4375 C5.07101563 8.61183594 5.51703125 9.78617188 5.9765625 10.99609375 C7 14 7 14 7 16 C10.56007358 13.62661762 10.85110773 12.33809432 12.1875 8.375 C12.53167969 7.37210938 12.87585937 6.36921875 13.23046875 5.3359375 C13.61138672 4.17964844 13.61138672 4.17964844 14 3 C14.99 3 15.98 3 17 3 C16.67 4.32 16.34 5.64 16 7 C15.505 6.505 15.505 6.505 15 6 C14.01 9.96 13.02 13.92 12 18 C10.02 18 8.04 18 6 18 C5.505 15.525 5.505 15.525 5 13 C4.01 12.67 3.02 12.34 2 12 C2 10.02 2 8.04 2 6 C1.24976563 6.24556641 1.24976563 6.24556641 0.484375 6.49609375 C-2.9263468 7.1878911 -6.28735757 7.10504665 -9.75 7.0625 C-10.44738281 7.05798828 -11.14476562 7.05347656 -11.86328125 7.04882812 C-13.57555803 7.0371002 -15.28779033 7.01916653 -17 7 C-16.67 8.65 -16.34 10.3 -16 12 C-17.70884005 10.37660195 -19.37446717 8.70680947 -21 7 C-21 6.34 -21 5.68 -21 5 C-19.73542969 4.97421875 -18.47085937 4.9484375 -17.16796875 4.921875 C-15.50777782 4.86559734 -13.8476229 4.80824993 -12.1875 4.75 C-10.93743164 4.72873047 -10.93743164 4.72873047 -9.66210938 4.70703125 C-4.77923838 4.64313081 -4.77923838 4.64313081 -0.92578125 1.953125 C-0.46751953 0.98632812 -0.46751953 0.98632812 0 0 Z " fill="#B46466" transform="translate(27,26)"/>
<path d="M0 0 C1.65322266 0.01740234 1.65322266 0.01740234 3.33984375 0.03515625 C4.99693359 0.04869141 4.99693359 0.04869141 6.6875 0.0625 C7.54214844 0.07410156 8.39679688 0.08570313 9.27734375 0.09765625 C8.94734375 1.41765625 8.61734375 2.73765625 8.27734375 4.09765625 C7.28734375 4.09765625 6.29734375 4.09765625 5.27734375 4.09765625 C5.13296875 4.90203125 4.98859375 5.70640625 4.83984375 6.53515625 C4.27734375 9.09765625 4.27734375 9.09765625 3.27734375 10.09765625 C0.94401042 10.09765625 -1.38932292 10.09765625 -3.72265625 10.09765625 C-4.71265625 10.59265625 -4.71265625 10.59265625 -5.72265625 11.09765625 C-6.05265625 9.44765625 -6.38265625 7.79765625 -6.72265625 6.09765625 C-5.73265625 6.09765625 -4.74265625 6.09765625 -3.72265625 6.09765625 C-3.74328125 5.29328125 -3.76390625 4.48890625 -3.78515625 3.66015625 C-3.6984952 0.10705314 -3.5643909 0.12784759 0 0 Z " fill="#920306" transform="translate(55.72265625,32.90234375)"/>
<path d="M0 0 C1.32 0.33 2.64 0.66 4 1 C4 1.66 4 2.32 4 3 C5.65 3 7.3 3 9 3 C9.33 4.65 9.66 6.3 10 8 C10.66 8 11.32 8 12 8 C12.61875 9.1446875 12.61875 9.1446875 13.25 10.3125 C15.40600243 13.62350373 17.45723219 14.37623142 21 16 C21.474375 16.53625 21.94875 17.0725 22.4375 17.625 C24.9434034 19.83019499 27.77332327 19.69559654 31 20 C29.4375 21.125 29.4375 21.125 27 22 C21.51818266 20.92564147 18.47997979 19.11292156 14.5 15.25 C13.09814453 13.91195312 13.09814453 13.91195312 11.66796875 12.546875 C10.78753906 11.70640625 9.90710937 10.8659375 9 10 C7.6137084 8.82201129 6.21958684 7.65306913 4.8125 6.5 C3.884375 5.675 2.95625 4.85 2 4 C2 3.34 2 2.68 2 2 C1.34 2 0.68 2 0 2 C0 1.34 0 0.68 0 0 Z " fill="#C68B89" transform="translate(11,38)"/>
<path d="M0 0 C1.53166168 4.08443115 0.63081652 7.79455657 0 12 C5.28 12.33 10.56 12.66 16 13 C16 11.68 16 10.36 16 9 C18.35438733 7.57055055 19.48032433 6.91338739 22.25 7.375 C22.8275 7.58125 23.405 7.7875 24 8 C23.401875 8.2475 22.80375 8.495 22.1875 8.75 C19.85765609 9.81885774 19.85765609 9.81885774 18.93359375 12.05859375 C16.62844019 14.37306106 15.96953484 14.3087776 12.8046875 14.42578125 C11.16111515 14.40852241 9.51765759 14.36998024 7.875 14.3125 C7.03839844 14.30283203 6.20179687 14.29316406 5.33984375 14.28320312 C-0.83182803 14.16817197 -0.83182803 14.16817197 -2 13 C-1.93579251 11.37146465 -1.7987936 9.74550788 -1.625 8.125 C-1.53476563 7.24070312 -1.44453125 6.35640625 -1.3515625 5.4453125 C-1 3 -1 3 0 0 Z " fill="#BA7777" transform="translate(6,13)"/>
<path d="M0 0 C0.66 0.33 1.32 0.66 2 1 C2 2.65 2 4.3 2 6 C-1.86723631 7.26582219 -5.73151262 7.1118765 -9.75 7.0625 C-10.44738281 7.05798828 -11.14476562 7.05347656 -11.86328125 7.04882812 C-13.57555803 7.0371002 -15.28779033 7.01916653 -17 7 C-16.67 8.65 -16.34 10.3 -16 12 C-17.70884005 10.37660195 -19.37446717 8.70680947 -21 7 C-21 6.34 -21 5.68 -21 5 C-19.73542969 4.97421875 -18.47085937 4.9484375 -17.16796875 4.921875 C-15.50777782 4.86559734 -13.8476229 4.80824993 -12.1875 4.75 C-10.93743164 4.72873047 -10.93743164 4.72873047 -9.66210938 4.70703125 C-4.77923838 4.64313081 -4.77923838 4.64313081 -0.92578125 1.953125 C-0.46751953 0.98632812 -0.46751953 0.98632812 0 0 Z " fill="#9F5354" transform="translate(27,26)"/>
<path d="M0 0 C1.3602366 0.03301545 2.72004838 0.09234554 4.078125 0.17578125 C4.77550781 0.19833984 5.47289063 0.22089844 6.19140625 0.24414062 C7.90457435 0.30281077 9.61663123 0.39248869 11.328125 0.48828125 C10.998125 1.14828125 10.668125 1.80828125 10.328125 2.48828125 C7.38671875 2.90234375 7.38671875 2.90234375 3.765625 3.11328125 C2.56808594 3.18804687 1.37054688 3.2628125 0.13671875 3.33984375 C-0.79011719 3.38882813 -1.71695313 3.4378125 -2.671875 3.48828125 C-3.001875 5.13828125 -3.331875 6.78828125 -3.671875 8.48828125 C-4.991875 8.81828125 -6.311875 9.14828125 -7.671875 9.48828125 C-7.671875 8.82828125 -7.671875 8.16828125 -7.671875 7.48828125 C-8.661875 7.48828125 -9.651875 7.48828125 -10.671875 7.48828125 C-10.341875 6.82828125 -10.011875 6.16828125 -9.671875 5.48828125 C-9.011875 5.48828125 -8.351875 5.48828125 -7.671875 5.48828125 C-6.85976563 4.26044922 -6.85976563 4.26044922 -6.03125 3.0078125 C-3.671875 0.48828125 -3.671875 0.48828125 0 0 Z " fill="#822123" transform="translate(55.671875,30.51171875)"/>
<path d="M0 0 C2.20914 3.31371 2.22481553 4.3446021 2.125 8.1875 C2.10695313 9.08855469 2.08890625 9.98960938 2.0703125 10.91796875 C2.04710938 11.60503906 2.02390625 12.29210938 2 13 C1.12263184 13.02187378 1.12263184 13.02187378 0.22753906 13.04418945 C-2.43229397 13.1188357 -5.09089448 13.21543899 -7.75 13.3125 C-8.67039062 13.33505859 -9.59078125 13.35761719 -10.5390625 13.38085938 C-11.87324219 13.4340332 -11.87324219 13.4340332 -13.234375 13.48828125 C-14.45979004 13.52755737 -14.45979004 13.52755737 -15.70996094 13.56762695 C-18.45994617 14.08684058 -19.90229473 15.19083451 -22 17 C-22.33 15.35 -22.66 13.7 -23 12 C-15.08 12 -7.16 12 1 12 C0.67 8.04 0.34 4.08 0 0 Z " fill="#CE9696" transform="translate(69,14)"/>
<path d="M0 0 C1.32 0.33 2.64 0.66 4 1 C4 1.66 4 2.32 4 3 C5.65 3 7.3 3 9 3 C9.33 4.65 9.66 6.3 10 8 C10.66 8 11.32 8 12 8 C11.67 8.66 11.34 9.32 11 10 C7.08158173 8.69386058 4.67359191 7.16870152 2 4 C2 3.34 2 2.68 2 2 C1.34 2 0.68 2 0 2 C0 1.34 0 0.68 0 0 Z " fill="#B66868" transform="translate(11,38)"/>
<path d="M0 0 C0.66 0 1.32 0 2 0 C0.62815653 4.06498881 -1.22068459 6.67396561 -4.125 9.8125 C-4.84945312 10.60269531 -5.57390625 11.39289062 -6.3203125 12.20703125 C-6.87460937 12.79871094 -7.42890625 13.39039063 -8 14 C-8.66 13.67 -9.32 13.34 -10 13 C-9.2884375 12.38125 -9.2884375 12.38125 -8.5625 11.75 C-6.83733482 9.817815 -6.43415125 8.51807725 -6 6 C-5.01 6 -4.02 6 -3 6 C-2.814375 5.071875 -2.814375 5.071875 -2.625 4.125 C-2 2 -2 2 0 0 Z " fill="#B46D6E" transform="translate(67,31)"/>
<path d="M0 0 C3 3.625 3 3.625 3 7 C4.65 6.67 6.3 6.34 8 6 C7.34 8.31 6.68 10.62 6 13 C5.34 13 4.68 13 4 13 C3.32694982 11.39850114 2.66177773 9.79368971 2 8.1875 C1.62875 7.29417969 1.2575 6.40085937 0.875 5.48046875 C0 3 0 3 0 0 Z " fill="#C17D80" transform="translate(30,21)"/>
<path d="M0 0 C0.33 0 0.66 0 1 0 C1 2.31 1 4.62 1 7 C-0.32 7.33 -1.64 7.66 -3 8 C-3 7.34 -3 6.68 -3 6 C-3.99 6 -4.98 6 -6 6 C-5.67 5.34 -5.34 4.68 -5 4 C-4.34 4 -3.68 4 -3 4 C-1.9739266 2.68662604 -0.97272675 1.35335895 0 0 Z " fill="#B25557" transform="translate(51,32)"/>
<path d="M0 0 C2.64 0 5.28 0 8 0 C8 1.98 8 3.96 8 6 C6 3 6 3 6 1 C5.01 1.33 4.02 1.66 3 2 C1.78130071 4.50447516 1.78130071 4.50447516 1 7 C0.67 7 0.34 7 0 7 C0 4.69 0 2.38 0 0 Z " fill="#BC6F73" transform="translate(38,20)"/>
<path d="M0 0 C0.66 0.33 1.32 0.66 2 1 C0.38405168 3.04119788 -1.2856382 5.04072937 -3 7 C-3.66 7 -4.32 7 -5 7 C-5 7.66 -5 8.32 -5 9 C-5.66 9 -6.32 9 -7 9 C-5.64978174 4.58110387 -3.73884332 2.65654657 0 0 Z " fill="#923136" transform="translate(14,5)"/>
<path d="M0 0 C2.34914492 2.34914492 2.73140357 3.95679446 3.625 7.125 C3.88539062 8.03507812 4.14578125 8.94515625 4.4140625 9.8828125 C4.70410156 10.93082031 4.70410156 10.93082031 5 12 C4.34 11.67 3.68 11.34 3 11 C3 10.34 3 9.68 3 9 C2.01 8.67 1.02 8.34 0 8 C0 5.36 0 2.72 0 0 Z " fill="#BB726F" transform="translate(29,30)"/>
<path d="M0 0 C3.23318592 1.5088201 5.35302722 2.70605444 7 6 C6.34 6.66 5.68 7.32 5 8 C2.27573689 5.64722731 1.1858237 3.37503669 0 0 Z " fill="#B95D64" transform="translate(32,6)"/>
<path d="M0 0 C-0.928125 0.4021875 -0.928125 0.4021875 -1.875 0.8125 C-4.2995233 1.95556848 -4.2995233 1.95556848 -6 5 C-6.66 5 -7.32 5 -8 5 C-8 3.68 -8 2.36 -8 1 C-4.93251126 -0.86240388 -3.40254489 -1.2151946 0 0 Z " fill="#C2797D" transform="translate(30,21)"/>
<path d="M0 0 C1.65 0 3.3 0 5 0 C4.67 1.32 4.34 2.64 4 4 C3.01 4 2.02 4 1 4 C1.33 3.34 1.66 2.68 2 2 C1.34 2 0.68 2 0 2 C0 1.34 0 0.68 0 0 Z " fill="#AF5150" transform="translate(47,48)"/>
<path d="M0 0 C0.66 0 1.32 0 2 0 C2.33 1.32 2.66 2.64 3 4 C1.35 4.66 -0.3 5.32 -2 6 C-1.49396008 3.83125748 -1.00016187 2.00032373 0 0 Z " fill="#950002" transform="translate(38,13)"/>
</svg>
